 http://img440.imageshack.us/img440/5695/harrypotterandthedeathll.jpg


Verenigd Koninkrijk / Verenigde Staten
Fantasy / Avontuur
130 minuten

geregisseerd door David Yates
met Daniel Radcliffe, Emma Watson en Rupert Grint

Het tweede deel van het zevende boek zal Harry Potter (Daniel Radcliffe) dichter bij de dood brengen dan ooit, 
terwijl hij ervoor kiest om zijn zoektocht naar de Gruzielementen voort te zetten, met de hulp van Ron (Rupert Grint) en Hermelien (Emma Watson). 
Maar ondertussen woedt de oorlog voort, terwijl steeds meer geliefden van Harry het loodje moeten leggen. 
Maar de tovenaarswereld zal opstaan voor nog een laatste slag, de slag waarin de ultieme confrontatie tussen De Jongen Die Bleef Leven en de Heer van het Duister (Ralph Fiennes) zal plaatsvinden. 
Zal het Harry lukken om Voldemort weer sterfelijk te maken en hem voorgoed te verslaan?


NL gesproken




Screenshots:
 
http://picturestack.com/293/849/3FJScreenhot1TTW.jpg
 
http://picturestack.com/293/849/wyYScreenhot2LTl.jpg
 
http://picturestack.com/293/849/92UScreenhot3w0n.jpg




INFO;


Format                                   : AVI
Format/Info                              : Audio Video Interleave
File size                                : 851 MiB
Duration                                 : 2h 5mn
Overall bit rate                         : 951 Kbps


Video
ID                                       : 0
Format                                   : MPEG-4 Visual
Format profile                           : Advanced Simple@L5
Format settings, BVOP                    : 1
Format settings, QPel                    : No
Format settings, GMC                     : No warppoints
Format settings, Matrix                  : Custom
Codec ID                                 : XVID
Codec ID/Hint                            : XviD
Duration                                 : 2h 5mn
Bit rate                                 : 560 Kbps
Width                                    : 640 pixels
Height                                   : 272 pixels
Display aspect ratio                     : 2.35:1
Frame rate                               : 25.000 fps
Color space                              : YUV
Chroma subsampling                       : 4:2:0
Bit depth                                : 8 bits
Scan type                                : Progressive
Compression mode                         : Lossy
Bits/(Pixel*Frame)                       : 0.129
Stream size                              : 501 MiB (59%)
Writing library                          : XviD 64

Audio
ID                                       : 1
Format                                   : AC-3
Format/Info                              : Audio Coding 3
Mode extension                           : CM (complete main)
Codec ID                                 : 2000
Duration                                 : 2h 5mn
Bit rate mode                            : Constant
Bit rate                                 : 384 Kbps
Channel(s)                               : 6 channels
Channel positions                        : Front: L C R, Side: L R, LFE
Sampling rate                            : 48.0 KHz
Bit depth                                : 16 bits
Compression mode                         : Lossy
Delay relative to video                  : 22ms
Stream size                              : 344 MiB (40%)
Alignment                                : Split accross


 
http://www.imdb.com/title/tt1201607/ 
http://www.moviemeter.nl/film/66863

Deze film wordt u aangeboden door het DutchReleaseTeam.
Voor de reviews van de nieuwste films, muziek, series, games etc
ga dan eens naar http://www.hetmultimediacafe.be

DutchReleaseteam = Hardcoded Dutch Subs